<?xml version="1.0" encoding="UTF-8"?>
<svg id="Layer_2" data-name="Layer 2" xmlns="http://www.w3.org/2000/svg" viewBox="0 0 72.4 43.08">
  <defs>
    <style>
      .cls-1 {
        fill: #de641e;
      }
    </style>
  </defs>
  <g id="Layer_2-2" data-name="Layer 2">
    <g id="Layer_1-2" data-name="Layer 1-2">
      <g>
        <path class="cls-1" d="M39.95,25.39c-.91-.7-1.8-1.37-2.77-2.11.83-.57,1.76-1.22,2.7-1.87,3.14-2.16,6.14-4.43,9.46-6.44,8.25-4.99,20.64-1.66,22.82,5.32,1.16,3.71-1.92,7.83-7.04,9.57-5.81,1.97-12,1.28-16.6-1.88-1.73-1.18-3.42-2.39-4.95-3.47.85-.72,1.75-1.48,2.68-2.26,2.09,1.44,4,2.8,5.97,4.1,5.09,3.35,13.72,1.75,15.6-2.88,1.31-3.24-2.04-7.03-6.94-7.8-3.77-.6-7.02.07-9.75,1.98-3.43,2.41-6.88,4.79-10.32,7.19-.25.17-.52.33-.87.55h0Z"/>
        <path class="cls-1" d="M28.84,19.23c-1.06.67-1.99,1.27-3.14,2-.97-.71-2.06-1.53-3.18-2.33-1.79-1.28-3.69-2.43-6.25-2.98-5.78-1.25-12,1.72-12.11,5.91-.11,4.19,5.29,7.1,10.95,6.37,2.24-.29,4.03-1.03,5.59-2.13,3.58-2.52,7.17-5.04,10.76-7.55.25-.17.51-.33.78-.51.93.69,1.82,1.35,2.78,2.06-.02.02-.19.18-.38.31-3.79,2.66-7.55,5.35-11.39,7.98-3.25,2.23-7.21,3.1-11.73,2.65-5.48-.55-9.21-2.67-10.9-6.3-2.52-5.4,2.98-11.18,11.07-11.85,3.98-.33,7.55.32,10.59,2.11,2.25,1.32,4.32,2.79,6.57,4.26h-.01Z"/>
        <path class="cls-1" d="M32.3,26.59c.89.67,1.77,1.33,2.75,2.07-.42.32-.94.71-1.46,1.1-1.15.86-2.39,1.66-3.42,2.59-1.69,1.51-1.88,3.24-.77,4.95,1.18,1.82,3.33,2.77,6.23,2.96,3.51.24,6.58-1.21,7.62-2.95,1.16-1.96.77-3.81-1.28-5.31-3.24-2.37-6.68-4.61-10.03-6.9-.23-.16-.51-.27-.8-.42,1.09-.71,2.04-1.34,3.06-2.01,1.67,1.09,3.49,2.24,5.24,3.43,2.11,1.44,4.34,2.81,6.19,4.4,3.79,3.27,3.28,7.57-1.08,10.38-2.79,1.8-6.17,2.47-9.95,2.09-4.98-.5-8.31-2.4-9.69-5.76-1.11-2.69-.03-5.13,2.52-7.22,1.44-1.18,3.15-2.21,4.88-3.4h-.01Z"/>
        <path class="cls-1" d="M41.42,18.98c-1.02.72-1.98,1.39-2.95,2.07-3.17-2.17-6.42-4.4-9.7-6.62-2.22-1.5-3.75-3.22-4.28-5.38-.97-3.93,2.81-7.92,8.45-8.82,6.66-1.07,12.99,1.64,14.46,6.27.8,2.54-.28,4.81-2.76,6.73-1.5,1.16-3.11,2.24-4.63,3.33-.97-.69-1.86-1.33-2.85-2.04.83-.57,1.81-1.29,2.84-1.96,1.65-1.08,2.98-2.25,3.35-3.9.62-2.76-2.64-5.71-6.67-5.88-4.02-.18-7.16,1.34-7.94,3.99-.58,1.97.18,3.75,2.29,5.18,3.27,2.22,6.57,4.43,9.85,6.65.18.12.35.26.54.4v-.02Z"/>
      </g>
    </g>
  </g>
</svg>