<?xml version="1.0" encoding="UTF-8"?>
<svg id="Layer_2" data-name="Layer 2" xmlns="http://www.w3.org/2000/svg" viewBox="0 0 561.85 70.39">
  <defs>
    <style>
      .cls-1 {
        fill: #f26343;
      }

      .cls-2 {
        fill: #fff;
        font-family: BookAntiqua, 'Book Antiqua';
        font-size: 60px;
        stroke: #fdf2f2;
        stroke-miterlimit: 10;
      }
    </style>
  </defs>
  <g id="Layer_1-2" data-name="Layer 1">
    <g>
      <text class="cls-2" transform="translate(67.99 51.23)"><tspan x="0" y="0">Bhramani Infotech</tspan></text>
      <path class="cls-1" d="M33.12,33.78c-.75-.72-1.49-1.43-2.28-2.19.69-.59,1.47-1.26,2.25-1.92,2.62-2.21,5.12-4.55,7.89-6.61,6.87-5.12,17.13-1.64,18.9,5.58.94,3.84-1.64,8.08-5.89,9.85-4.83,2.01-9.96,1.27-13.76-2.01-1.42-1.23-2.82-2.48-4.09-3.6.71-.74,1.46-1.52,2.24-2.32,1.73,1.5,3.3,2.91,4.93,4.26,4.2,3.47,11.37,1.86,12.96-2.91,1.11-3.34-1.65-7.26-5.71-8.08-3.13-.63-5.82.04-8.1,2.01-2.86,2.47-5.73,4.92-8.6,7.38-.21.18-.43.34-.72.57Z"/>
      <path class="cls-1" d="M23.94,27.38c-.88.69-1.66,1.3-2.62,2.06-.8-.74-1.7-1.59-2.62-2.42-1.48-1.33-3.05-2.52-5.17-3.1-4.79-1.32-9.97,1.72-10.08,6.05-.12,4.32,4.35,7.35,9.05,6.62,1.86-.29,3.35-1.04,4.65-2.17,2.98-2.59,5.98-5.17,8.97-7.75.21-.18.42-.34.65-.52.77.72,1.5,1.4,2.29,2.13-.02.02-.16.18-.32.32-3.16,2.73-6.29,5.49-9.5,8.19-2.71,2.28-6,3.17-9.75,2.69-4.54-.59-7.62-2.79-9.01-6.54-2.06-5.59,2.54-11.53,9.25-12.18,3.3-.32,6.26.37,8.77,2.22,1.86,1.37,3.56,2.9,5.43,4.42Z"/>
      <path class="cls-1" d="M26.77,34.99c.74.7,1.46,1.38,2.27,2.15-.35.33-.78.73-1.21,1.13-.96.88-2,1.71-2.86,2.66-1.41,1.56-1.58,3.34-.67,5.11.97,1.88,2.75,2.87,5.15,3.08,2.91.26,5.47-1.22,6.34-3.02.98-2.02.67-3.93-1.03-5.49-2.67-2.46-5.51-4.78-8.28-7.16-.19-.16-.42-.29-.66-.44.9-.73,1.7-1.38,2.55-2.06,1.38,1.13,2.88,2.32,4.33,3.56,1.74,1.49,3.59,2.91,5.11,4.56,3.12,3.39,2.68,7.83-.95,10.71-2.33,1.85-5.13,2.53-8.27,2.12-4.13-.54-6.88-2.51-8-5.98-.9-2.78,0-5.29,2.13-7.44,1.2-1.21,2.63-2.27,4.07-3.49Z"/>
      <path class="cls-1" d="M34.38,27.16c-.85.74-1.65,1.43-2.46,2.12-2.62-2.25-5.3-4.57-8.01-6.87-1.83-1.55-3.1-3.34-3.52-5.57-.78-4.06,2.37-8.16,7.06-9.07,5.53-1.08,10.77,1.74,11.95,6.53.65,2.63-.26,4.96-2.33,6.93-1.25,1.19-2.59,2.3-3.86,3.42-.8-.72-1.53-1.38-2.35-2.12.69-.59,1.51-1.32,2.37-2.01,1.38-1.11,2.49-2.31,2.8-4.01.53-2.85-2.16-5.9-5.5-6.1-3.33-.2-5.94,1.35-6.61,4.08-.49,2.03.13,3.87,1.87,5.36,2.7,2.31,5.42,4.6,8.13,6.9.15.13.29.27.44.41Z"/>
    </g>
  </g>
</svg>